<svg xmlns="http://www.w3.org/2000/svg" width="12.695" height="21.328" viewBox="0 0 12.695 21.328"><path d="M189.922-173.291H193.1q.254,2.158,2.158,2.158h3.174v-2.158h-4.189q4.189-.635,4.189-4.316v-10.537a4.267,4.267,0,0,0-1.206-3.047,3.95,3.95,0,0,0-2.983-1.27h-4.316a4.014,4.014,0,0,0-2.92,1.27,4.155,4.155,0,0,0-1.27,3.047v10.537a4.155,4.155,0,0,0,1.27,3.047A4.014,4.014,0,0,0,189.922-173.291Zm0-4.316v-10.537a2.078,2.078,0,0,1,.635-1.523,2.078,2.078,0,0,1,1.523-.635,2.078,2.078,0,0,1,1.523.635,2.078,2.078,0,0,1,.635,1.523v10.537a2.078,2.078,0,0,1-.635,1.523,2.078,2.078,0,0,1-1.523.635,2.078,2.078,0,0,1-1.523-.635A2.078,2.078,0,0,1,189.922-177.607Z" transform="translate(-185.732 192.461)" fill="#707070"/></svg>