<svg xmlns="http://www.w3.org/2000/svg" width="10.664" height="19.17" viewBox="0 0 10.664 19.17"><path d="M117.686,45.7q0-3.174-3.047-6.221l-1.016-1.016a4.954,4.954,0,0,1-1.777-3.3q0-1.523,1.65-1.523,1.4,0,1.65,2.158h2.539q-.254-4.824-4.062-4.824h-2.412q-4.189,0-4.189,4.443,0,3.174,3.047,6.221l1.143,1.143a4.9,4.9,0,0,1,1.777,3.174,2.087,2.087,0,0,1-.063.508,2.481,2.481,0,0,1-.19.508,2.185,2.185,0,0,1-1.4.508.735.735,0,0,1-.508-.127L110.2,47.1l-.508-1.143v-.508h-2.666q0,4.7,4.189,4.7h2.412Q117.686,50.146,117.686,45.7Z" transform="translate(-107.021 -30.977)" fill="#707070"/></svg>